<svg width="93" height="102" viewBox="0 0 93 102" fill="none" xmlns="http://www.w3.org/2000/svg">
<mask id="path-1-inside-1_1_345" fill="white">
<path fill-rule="evenodd" clip-rule="evenodd" d="M46.2581 92.5162C71.8058 92.5162 92.5162 71.8058 92.5162 46.2581C92.5162 20.7105 71.8058 0 46.2581 0C20.7105 0 0 20.7105 0 46.2581C0 71.8058 20.7105 92.5162 46.2581 92.5162ZM46.2581 70.9291C59.8835 70.9291 70.9291 59.8835 70.9291 46.2581C70.9291 32.6327 59.8835 21.5871 46.2581 21.5871C32.6327 21.5871 21.5871 32.6327 21.5871 46.2581C21.5871 59.8835 32.6327 70.9291 46.2581 70.9291Z"/>
</mask>
<path fill-rule="evenodd" clip-rule="evenodd" d="M46.2581 92.5162C71.8058 92.5162 92.5162 71.8058 92.5162 46.2581C92.5162 20.7105 71.8058 0 46.2581 0C20.7105 0 0 20.7105 0 46.2581C0 71.8058 20.7105 92.5162 46.2581 92.5162ZM46.2581 70.9291C59.8835 70.9291 70.9291 59.8835 70.9291 46.2581C70.9291 32.6327 59.8835 21.5871 46.2581 21.5871C32.6327 21.5871 21.5871 32.6327 21.5871 46.2581C21.5871 59.8835 32.6327 70.9291 46.2581 70.9291Z" fill="#155EEF"/>
<path d="M89.4324 46.2581C89.4324 70.1026 70.1026 89.4324 46.2581 89.4324V95.6001C73.5089 95.6001 95.6001 73.5089 95.6001 46.2581H89.4324ZM46.2581 3.08387C70.1026 3.08387 89.4324 22.4136 89.4324 46.2581H95.6001C95.6001 19.0073 73.5089 -3.08387 46.2581 -3.08387V3.08387ZM3.08387 46.2581C3.08387 22.4136 22.4136 3.08387 46.2581 3.08387V-3.08387C19.0073 -3.08387 -3.08387 19.0073 -3.08387 46.2581H3.08387ZM46.2581 89.4324C22.4136 89.4324 3.08387 70.1026 3.08387 46.2581H-3.08387C-3.08387 73.5089 19.0073 95.6001 46.2581 95.6001V89.4324ZM67.8452 46.2581C67.8452 58.1804 58.1804 67.8452 46.2581 67.8452V74.013C61.5867 74.013 74.013 61.5867 74.013 46.2581H67.8452ZM46.2581 24.671C58.1804 24.671 67.8452 34.3359 67.8452 46.2581H74.013C74.013 30.9295 61.5867 18.5033 46.2581 18.5033V24.671ZM24.671 46.2581C24.671 34.3359 34.3359 24.671 46.2581 24.671V18.5033C30.9295 18.5033 18.5033 30.9295 18.5033 46.2581H24.671ZM46.2581 67.8452C34.3359 67.8452 24.671 58.1804 24.671 46.2581H18.5033C18.5033 61.5867 30.9295 74.013 46.2581 74.013V67.8452Z" fill="white" mask="url(#path-1-inside-1_1_345)"/>
<circle cx="8.60616" cy="8.60616" r="8.60616" transform="matrix(1 0 0 -1 67.7734 101.122)" fill="#155EEF"/>
</svg>
