<svg width="319" height="102" viewBox="0 0 319 102" fill="none" xmlns="http://www.w3.org/2000/svg">
<mask id="path-1-inside-1_1_344" fill="white">
<path fill-rule="evenodd" clip-rule="evenodd" d="M46.2581 92.5162C71.8058 92.5162 92.5162 71.8058 92.5162 46.2581C92.5162 20.7105 71.8058 0 46.2581 0C20.7105 0 0 20.7105 0 46.2581C0 71.8058 20.7105 92.5162 46.2581 92.5162ZM46.2581 70.9291C59.8835 70.9291 70.9291 59.8835 70.9291 46.2581C70.9291 32.6327 59.8835 21.5871 46.2581 21.5871C32.6327 21.5871 21.5871 32.6327 21.5871 46.2581C21.5871 59.8835 32.6327 70.9291 46.2581 70.9291Z"/>
</mask>
<path fill-rule="evenodd" clip-rule="evenodd" d="M46.2581 92.5162C71.8058 92.5162 92.5162 71.8058 92.5162 46.2581C92.5162 20.7105 71.8058 0 46.2581 0C20.7105 0 0 20.7105 0 46.2581C0 71.8058 20.7105 92.5162 46.2581 92.5162ZM46.2581 70.9291C59.8835 70.9291 70.9291 59.8835 70.9291 46.2581C70.9291 32.6327 59.8835 21.5871 46.2581 21.5871C32.6327 21.5871 21.5871 32.6327 21.5871 46.2581C21.5871 59.8835 32.6327 70.9291 46.2581 70.9291Z" fill="#155EEF"/>
<path d="M89.4324 46.2581C89.4324 70.1026 70.1026 89.4324 46.2581 89.4324V95.6001C73.5089 95.6001 95.6001 73.5089 95.6001 46.2581H89.4324ZM46.2581 3.08387C70.1026 3.08387 89.4324 22.4136 89.4324 46.2581H95.6001C95.6001 19.0073 73.5089 -3.08387 46.2581 -3.08387V3.08387ZM3.08387 46.2581C3.08387 22.4136 22.4136 3.08387 46.2581 3.08387V-3.08387C19.0073 -3.08387 -3.08387 19.0073 -3.08387 46.2581H3.08387ZM46.2581 89.4324C22.4136 89.4324 3.08387 70.1026 3.08387 46.2581H-3.08387C-3.08387 73.5089 19.0073 95.6001 46.2581 95.6001V89.4324ZM67.8452 46.2581C67.8452 58.1804 58.1804 67.8452 46.2581 67.8452V74.013C61.5867 74.013 74.013 61.5867 74.013 46.2581H67.8452ZM46.2581 24.671C58.1804 24.671 67.8452 34.3359 67.8452 46.2581H74.013C74.013 30.9295 61.5867 18.5033 46.2581 18.5033V24.671ZM24.671 46.2581C24.671 34.3359 34.3359 24.671 46.2581 24.671V18.5033C30.9295 18.5033 18.5033 30.9295 18.5033 46.2581H24.671ZM46.2581 67.8452C34.3359 67.8452 24.671 58.1804 24.671 46.2581H18.5033C18.5033 61.5867 30.9295 74.013 46.2581 74.013V67.8452Z" fill="white" mask="url(#path-1-inside-1_1_344)"/>
<circle cx="8.60616" cy="8.60616" r="8.60616" transform="matrix(1 0 0 -1 67.7734 101.122)" fill="#155EEF"/>
<path d="M119.414 66.0883C122.436 66.0883 125.036 65.4488 127.214 64.1699C129.407 62.891 131.1 61.078 132.295 58.731C133.489 56.3699 134.087 53.5801 134.087 50.3618V50.3196C134.087 47.0871 133.489 44.3044 132.295 41.9714C131.1 39.6244 129.407 37.8114 127.214 36.5325C125.022 35.2536 122.422 34.6141 119.414 34.6141C116.421 34.6141 113.821 35.2536 111.614 36.5325C109.422 37.7974 107.728 39.6033 106.534 41.9504C105.339 44.2974 104.742 47.0871 104.742 50.3196V50.3618C104.742 53.5801 105.332 56.3699 106.513 58.731C107.707 61.078 109.401 62.891 111.593 64.1699C113.8 65.4488 116.407 66.0883 119.414 66.0883ZM119.414 60.6915C117.742 60.6915 116.294 60.2699 115.072 59.4267C113.849 58.5834 112.9 57.3888 112.226 55.8429C111.565 54.2969 111.235 52.4699 111.235 50.3618V50.3196C111.235 48.1834 111.572 46.3493 112.247 44.8174C112.921 43.2715 113.87 42.0839 115.093 41.2547C116.315 40.4255 117.756 40.0109 119.414 40.0109C121.073 40.0109 122.513 40.4325 123.736 41.2758C124.959 42.105 125.9 43.2925 126.561 44.8385C127.235 46.3704 127.573 48.1974 127.573 50.3196V50.3618C127.573 52.4558 127.242 54.2758 126.582 55.8218C125.921 57.3677 124.98 58.5694 123.757 59.4267C122.548 60.2699 121.101 60.6915 119.414 60.6915ZM127.003 68.4072H133.054L123.652 55.1261H117.601L127.003 68.4072ZM145.365 66.0251C146.504 66.0251 147.515 65.8564 148.401 65.5191C149.3 65.1818 150.066 64.697 150.699 64.0645C151.345 63.4321 151.865 62.6872 152.259 61.8299H152.385V65.5613H158.541V42.9623H152.385V55.9483C152.385 56.6791 152.28 57.3537 152.069 57.9721C151.858 58.5764 151.556 59.1034 151.162 59.5531C150.769 59.9888 150.291 60.3261 149.729 60.565C149.181 60.804 148.562 60.9234 147.874 60.9234C146.497 60.9234 145.457 60.5159 144.754 59.7007C144.065 58.8856 143.721 57.7402 143.721 56.2645V42.9623H137.565V57.5504C137.565 59.3072 137.867 60.818 138.472 62.0829C139.09 63.3478 139.975 64.3245 141.128 65.0132C142.294 65.6878 143.707 66.0251 145.365 66.0251ZM162.673 65.5613H168.829V42.9623H162.673V65.5613ZM165.751 40.0531C166.678 40.0531 167.458 39.7368 168.091 39.1044C168.723 38.472 169.039 37.7201 169.039 36.8487C169.039 35.9633 168.723 35.2114 168.091 34.593C167.458 33.9606 166.678 33.6444 165.751 33.6444C164.823 33.6444 164.043 33.9606 163.411 34.593C162.778 35.2114 162.462 35.9633 162.462 36.8487C162.462 37.7201 162.778 38.472 163.411 39.1044C164.043 39.7368 164.823 40.0531 165.751 40.0531ZM172.539 65.5613H191.196V60.9234H180.255V60.7969L190.943 46.8623V42.9623H172.707V47.6001H183.902V47.7055L172.539 62.0618V65.5613ZM198.532 55.9693H207.555C209.691 55.9693 211.56 55.5407 213.162 54.6834C214.764 53.8261 216.008 52.6174 216.894 51.0574C217.793 49.4974 218.243 47.6704 218.243 45.5763V45.5342C218.243 43.4542 217.793 41.6341 216.894 40.0741C216.008 38.5141 214.764 37.3055 213.162 36.4482C211.56 35.5768 209.691 35.1411 207.555 35.1411H198.532V40.1795H205.995C207.822 40.1795 209.241 40.6433 210.253 41.5709C211.279 42.4985 211.792 43.8266 211.792 45.5552V45.5974C211.792 47.3261 211.279 48.6612 210.253 49.6028C209.241 50.5304 207.822 50.9942 205.995 50.9942H198.532V55.9693ZM195.328 65.5613H201.694V35.1411H195.328V65.5613ZM221.637 65.5613H227.793V35.1411H221.637V65.5613ZM238.67 65.9197C239.668 65.9197 240.589 65.7721 241.432 65.477C242.275 65.1678 243.027 64.7391 243.688 64.191C244.362 63.6288 244.91 62.9613 245.332 62.1883H245.459V65.5613H251.614V50.0666C251.614 48.5488 251.214 47.2207 250.413 46.0823C249.626 44.9439 248.515 44.0655 247.082 43.4471C245.648 42.8147 243.955 42.4985 242.001 42.4985C240.02 42.4985 238.305 42.8077 236.857 43.426C235.424 44.0304 234.3 44.8736 233.484 45.9558C232.683 47.038 232.227 48.2747 232.114 49.6661L232.093 49.919H237.722L237.764 49.7293C237.919 48.9985 238.333 48.3942 239.008 47.9163C239.682 47.4385 240.596 47.1996 241.748 47.1996C242.957 47.1996 243.877 47.4947 244.51 48.085C245.142 48.6612 245.459 49.4482 245.459 50.4461V57.2975C245.459 58.0845 245.248 58.7942 244.826 59.4267C244.419 60.045 243.849 60.5369 243.119 60.9023C242.402 61.2537 241.587 61.4294 240.673 61.4294C239.605 61.4294 238.755 61.1975 238.122 60.7337C237.49 60.2559 237.174 59.6023 237.174 58.7731V58.731C237.174 57.9299 237.483 57.2904 238.101 56.8126C238.72 56.3207 239.619 56.0396 240.8 55.9693L248.684 55.4634V51.6266L239.872 52.1747C238.003 52.3012 236.415 52.6455 235.108 53.2077C233.801 53.7699 232.803 54.5429 232.114 55.5266C231.426 56.4964 231.081 57.6699 231.081 59.0472V59.0894C231.081 60.4104 231.397 61.591 232.03 62.631C232.676 63.6569 233.569 64.4651 234.707 65.0553C235.846 65.6315 237.167 65.9197 238.67 65.9197ZM255.599 65.5613H261.754V52.5753C261.754 51.5774 261.937 50.7061 262.302 49.9612C262.682 49.2163 263.209 48.6401 263.884 48.2326C264.558 47.8109 265.352 47.6001 266.266 47.6001C267.643 47.6001 268.676 48.0077 269.365 48.8228C270.067 49.6239 270.419 50.7623 270.419 52.238V65.5613H276.574V50.9731C276.574 48.3169 275.893 46.2439 274.53 44.7542C273.18 43.2504 271.262 42.4985 268.774 42.4985C267.074 42.4985 265.647 42.8709 264.495 43.6158C263.342 44.3606 262.471 45.3796 261.881 46.6725H261.754V42.9623H255.599V65.5613ZM290.762 66.0251C292.378 66.0251 293.784 65.8143 294.978 65.3926C296.187 64.971 297.206 64.4088 298.035 63.7061C298.878 63.0034 299.546 62.2305 300.038 61.3872C300.53 60.544 300.86 59.7077 301.029 58.8785L301.092 58.6467H295.442L295.4 58.7731C295.259 59.1948 294.992 59.6094 294.599 60.0169C294.205 60.4245 293.699 60.7618 293.081 61.0288C292.463 61.2959 291.732 61.4294 290.889 61.4294C289.82 61.4294 288.9 61.1975 288.127 60.7337C287.354 60.2559 286.757 59.5742 286.335 58.6888C285.927 57.8034 285.724 56.7353 285.724 55.4845V53.1023C285.724 51.8093 285.927 50.7201 286.335 49.8347C286.757 48.9353 287.333 48.2536 288.064 47.7898C288.808 47.3261 289.659 47.0942 290.614 47.0942C291.57 47.0942 292.406 47.319 293.123 47.7688C293.854 48.2185 294.423 48.8931 294.831 49.7926C295.238 50.678 295.442 51.7812 295.442 53.1023V55.4634L298.372 51.8374H282.667V55.7164H301.282V53.8191C301.282 51.5423 300.839 49.5536 299.953 47.8531C299.082 46.1525 297.838 44.8385 296.222 43.9109C294.62 42.9693 292.716 42.4985 290.509 42.4985C288.303 42.4985 286.384 42.9833 284.754 43.9531C283.138 44.9088 281.88 46.272 280.98 48.0428C280.095 49.7996 279.652 51.8796 279.652 54.2829V54.3039C279.652 56.7072 280.095 58.7872 280.98 60.544C281.88 62.3007 283.159 63.6569 284.817 64.6126C286.476 65.5543 288.457 66.0251 290.762 66.0251ZM313.445 66.0251C314.092 66.0251 314.661 65.997 315.153 65.9407C315.659 65.8986 316.081 65.8494 316.418 65.7932V61.2818C316.235 61.3099 316.038 61.338 315.828 61.3661C315.617 61.3802 315.371 61.3872 315.09 61.3872C314.162 61.3872 313.459 61.1834 312.982 60.7759C312.518 60.3542 312.286 59.6164 312.286 58.5623V47.6001H316.418V42.9623H312.286V37.439H306.067V42.9623H302.926V47.6001H306.067V59.2369C306.067 61.6542 306.671 63.3899 307.88 64.444C309.089 65.498 310.944 66.0251 313.445 66.0251Z" fill="#1E1E1E"/>
</svg>
