<svg width="195" height="263" viewBox="0 0 195 263" fill="none" xmlns="http://www.w3.org/2000/svg">
<path fill-rule="evenodd" clip-rule="evenodd" d="M34.5509 232.311C31.2442 232.151 32.5742 226.365 32.8115 224.24C35.4295 216.479 34.8141 208.012 35.8437 199.877C36.4852 192.284 37.3094 184.714 38.0027 177.126C39.3643 161.723 49.1422 130.366 60.3005 125.324C61.7061 119.154 67.5117 113.395 74.857 113.395C79.8669 107.463 85.8969 103.288 93.6312 104.131C96.8273 104.277 99.9269 107.668 102.989 108.322C104.704 108.559 119.922 107.95 122.97 109.761C125.094 110.852 127.01 112.867 126.386 115.433C125.39 118.541 128.486 115.178 134.944 118.496C148.112 126.407 140.243 136.991 139.894 137.319C148.112 148.756 155.295 158.034 158.618 172.014C160.772 182.392 160.529 193.106 162.334 203.538C162.971 207.155 163.948 210.649 165.006 214.162C166.153 218.759 166.71 230.216 167.342 230.319C168.493 230.605 166.677 232.969 165.457 232.971C131.644 238.581 97.2972 233.203 63.3019 232.324C53.7215 231.991 44.1308 231.914 34.5509 232.311Z" fill="white"/>
<path fill-rule="evenodd" clip-rule="evenodd" d="M85.8004 138.328C85.7846 138.173 85.5759 138.173 85.5598 138.328L85.3211 140.633C85.0306 143.449 84.751 146.259 84.5483 149.087C84.2956 152.615 84.1265 156.141 84.0451 159.676C83.761 171.989 83.7046 184.308 83.6806 196.623C82.0156 196.508 80.3505 196.397 78.6845 196.289C77.5542 196.216 76.4238 196.146 75.2933 196.077L72.4108 195.902V195.902L71.224 195.829C70.4221 195.78 69.5109 195.578 68.9503 196.288C68.7258 196.573 68.6132 196.943 68.8224 197.28C69.3051 198.059 70.0465 198.032 70.8851 198.066C71.6762 198.098 72.4674 198.129 73.2586 198.16C74.954 198.225 76.6493 198.288 78.3452 198.335C80.125 198.385 81.9039 198.426 83.683 198.456C83.701 203.655 83.9161 208.848 84.1486 214.041L84.2538 216.378C84.5383 222.698 84.8444 229.024 85.2792 235.335C85.315 235.852 86.0457 235.851 86.0812 235.335C86.5708 228.227 86.8939 221.104 87.2142 213.987C87.4465 208.826 87.5817 203.665 87.646 198.502C87.8813 198.504 88.1164 198.507 88.3515 198.508C95.029 198.537 101.705 198.566 108.382 198.503C108.371 198.516 108.36 198.53 108.353 198.547C107.87 199.688 107.824 201.144 107.836 202.369C107.849 203.773 108.038 205.161 108.361 206.527C109.52 211.42 112.508 215.802 115.912 219.425L116.023 219.543C116.826 220.392 117.747 221.244 118.24 222.325C118.743 223.429 118.918 224.72 119.167 225.905L119.196 226.042L120.167 230.531C120.476 231.956 120.564 234.036 121.692 235.064C122.744 236.024 124.139 235.523 124.634 234.287C125.021 233.323 124.636 232.263 124.407 231.299L122.612 223.751C122.317 222.521 121.994 221.282 121.358 220.176C120.706 219.043 119.75 218.222 118.774 217.382C116.927 215.792 115.232 213.97 113.798 211.999C112.364 210.028 111.139 207.855 110.28 205.571C109.85 204.427 109.497 203.239 109.254 202.041C109.023 200.904 109.025 199.727 108.778 198.603C108.761 198.525 108.695 198.472 108.62 198.448C108.638 198.398 108.611 198.33 108.541 198.326L103.08 197.975C98.2253 197.661 93.3711 197.34 88.521 196.973L87.664 196.911V196.911C87.7306 190.023 87.6741 183.134 87.5497 176.243C87.4358 169.924 87.4334 163.603 87.2455 157.285C87.1521 154.15 86.9507 151.021 86.7265 147.892C86.4973 144.692 86.1303 141.519 85.8004 138.328ZM137.078 174.966C137.136 174.615 136.695 174.398 136.491 174.719C134.166 178.385 133.045 182.368 132.572 186.659C132.155 190.445 132.278 194.287 132.486 198.084C132.707 202.133 132.966 206.182 133.228 210.229L133.63 216.435V216.435L134.638 231.995C134.71 233.108 134.963 234.12 135.921 234.637C136.042 234.739 136.169 234.83 136.316 234.908C136.834 235.185 137.52 235.045 137.819 234.514L137.699 234.593C137.595 234.659 137.712 234.567 138.051 234.318L138.339 233.945V233.945C138.549 233.63 138.682 233.321 138.736 232.947C138.82 232.366 138.711 231.728 138.673 231.144L138.012 220.942V220.942C137.498 213.01 136.898 205.08 136.445 197.144C136.234 193.446 136.087 189.743 136.187 186.038C136.286 182.354 136.474 178.607 137.078 174.966ZM116.961 106.666L116.832 106.644C112.213 105.877 107.191 106.021 102.969 108.248C102.934 108.266 102.95 108.324 102.99 108.322L104.348 108.268C108.649 108.1 112.937 108 117.167 109.011L117.6 109.115C119.123 109.487 120.713 109.942 121.937 110.948C123.106 111.91 123.688 113.394 124.248 114.76L124.323 114.94C124.891 116.289 125.61 117.568 126.855 118.412C128.468 119.504 130.407 119.371 132.256 119.519C135.512 119.781 138.174 122.141 139.498 125.029C140.3 126.778 140.642 128.739 140.71 130.651C140.744 131.625 140.749 132.637 140.62 133.604C140.578 133.913 140.196 135.04 140.001 135.013C139.568 134.953 139.172 135.179 139.037 135.525C137.967 134.491 136.867 133.487 135.731 132.519C132.899 130.107 129.85 127.921 126.638 126.042C124.186 124.608 121.601 123.188 118.923 122.114C119.135 122.109 119.344 122.152 119.547 122.257C119.636 122.303 119.724 122.192 119.654 122.118C118.81 121.231 117.8 121.104 116.782 121.341C116.564 121.272 116.347 121.205 116.129 121.142C116.02 121.11 115.966 121.26 116.055 121.318L116.305 121.477V121.477C115.194 121.85 114.103 122.581 113.239 123.159C110.759 124.817 108.575 126.844 106.362 128.834L105.96 129.194C104.011 130.935 102.014 132.625 99.8 134.021C98.6413 134.752 97.4243 135.428 96.1477 135.931C95.0528 136.362 93.2702 136.634 92.7574 137.791C92.3016 138.345 92.492 139.052 93.0258 139.425C93.9262 140.416 95.7272 139.776 96.8 139.363C98.0933 138.865 99.3463 138.267 100.541 137.565C102.861 136.203 105 134.509 106.993 132.707C109.074 130.825 111.037 128.826 113.061 126.885C113.938 126.044 114.795 125.183 115.673 124.343L116.114 123.925C116.563 123.505 117.201 122.849 117.884 122.452C119.171 123.22 120.477 123.956 121.752 124.744C123.532 125.843 125.259 127.021 126.959 128.238C130.233 130.582 133.336 133.206 136.216 136.019C141.498 141.178 145.998 147.069 149.93 153.307L150.228 153.783C152.462 157.353 154.575 161.038 156.073 164.984C157.721 169.325 158.523 173.89 158.958 178.499C159.39 183.074 159.536 187.672 160.019 192.243C160.514 196.931 161.49 201.516 162.601 206.092L162.865 207.177C163.87 211.275 164.906 215.373 165.423 219.568C165.698 221.809 165.864 224.08 165.827 226.339C165.789 228.611 165.432 230.833 165.144 233.081C165.034 233.942 165.881 234.661 166.639 234.775C167.511 234.906 168.26 234.35 168.531 233.54C169.376 231.014 169.53 228.222 169.503 225.571C169.477 222.879 169.133 220.206 168.65 217.561C167.7 212.358 166.233 207.263 165.006 202.122C163.925 197.592 163.2 193.053 162.808 188.411C162.402 183.596 162.159 178.764 161.419 173.983C160.687 169.263 159.312 164.755 157.237 160.452C155.348 156.533 152.994 152.845 150.525 149.27C147.527 144.929 144.235 140.798 140.554 137.034C140.885 137.02 141.224 136.913 141.536 136.719C142.49 136.124 142.934 134.96 143.07 133.897C143.39 131.41 143.313 128.815 142.674 126.384C141.642 122.462 138.966 118.978 135.087 117.564C134.089 117.201 133.028 117.068 131.969 117.042C130.965 117.017 129.869 117.147 128.9 116.829C127.358 116.322 126.697 114.505 126.118 113.128L126.091 113.065C125.349 111.31 124.458 109.806 122.85 108.71C121.134 107.541 118.985 107.009 116.961 106.666V106.666ZM73.0741 113.606C71.6861 113.124 69.9508 113.562 68.5935 113.982C67.0813 114.451 65.6839 115.315 64.4859 116.341C63.222 117.422 62.1774 118.758 61.4394 120.25L61.3689 120.394C60.6948 121.778 59.9272 123.678 60.2671 125.199C60.2768 125.242 60.2879 125.283 60.3006 125.324C57.5467 126.68 55.0035 128.378 52.7888 130.531C50.2099 133.038 48.0264 135.89 46.1785 138.971C38.8393 151.21 37.5476 165.909 36.6808 179.866L36.4646 183.405C35.994 191.047 35.4432 198.671 34.0124 206.207L33.908 206.751C32.3786 214.642 30.1893 222.593 30.4111 230.688C30.4776 233.113 34.0608 233.096 34.1647 230.688C34.5558 221.621 36.6709 212.867 38.1032 203.942C40.6234 188.24 39.3606 172.053 42.9315 156.508C44.3328 150.408 46.5036 144.49 49.6034 139.045C51.1346 136.355 52.8865 133.756 54.9386 131.435C56.7042 129.438 58.5393 127.516 60.6026 125.838C61.262 126.498 62.5793 126.162 62.9236 125.199C63.16 124.537 63.0911 123.763 63.2428 123.07C63.3836 122.426 63.5778 121.788 63.8365 121.183C64.3522 119.975 65.1092 118.815 65.983 117.838C66.927 116.782 68.0119 115.904 69.2259 115.179C70.4482 114.45 71.785 114.232 73.0741 113.699C73.1175 113.681 73.1217 113.623 73.0741 113.606ZM67.6817 197.522C67.6796 197.459 67.6045 197.428 67.5583 197.471C67.0717 197.919 66.7776 198.562 66.4195 199.113C66.0064 199.748 65.5727 200.37 65.1179 200.977C64.2066 202.191 63.1922 203.336 62.1697 204.457C61.2187 205.5 60.2051 206.499 59.1537 207.441C58.0145 208.462 56.7379 209.372 55.7029 210.502C53.5433 212.86 53.1944 216.096 52.7387 219.135L52.6888 219.463C52.411 221.267 52.162 223.075 51.9375 224.885C51.8284 225.766 51.7195 226.648 51.6306 227.531L51.6034 227.81C51.5241 228.675 51.5027 229.552 51.9989 230.307C52.5302 231.115 53.738 231.398 54.4561 230.624C55.6899 229.293 55.4586 226.928 55.6191 225.216C55.7517 223.8 55.9021 222.386 56.0705 220.973L56.1562 220.268C56.3546 218.661 56.5158 217.023 56.8832 215.444C57.2071 214.054 57.8242 213.005 58.8368 211.998C59.8569 210.983 60.9169 210.036 61.8584 208.944C62.8571 207.785 63.758 206.543 64.5697 205.246C65.2639 204.137 65.8204 202.93 66.3303 201.724L66.4148 201.524C66.9076 200.348 67.7202 198.817 67.6817 197.522ZM49.868 147.024C49.8572 146.86 49.615 146.858 49.6114 147.024C49.5807 148.434 49.5513 149.845 49.5221 151.255C49.2866 162.62 49.4317 174.012 48.2918 185.338C47.7542 190.678 46.7643 195.94 45.6187 201.18C45.0326 203.861 44.4176 206.536 43.8333 209.217C43.2639 211.83 42.6532 214.456 42.2015 217.094C41.7577 219.686 41.3601 222.299 41.1817 224.924L41.1597 225.267C41.0829 226.539 40.7162 228.41 41.4163 229.537C42.175 230.758 43.6275 230.78 44.4404 229.614C45.2037 228.52 45.0139 226.573 45.1487 225.267C45.2858 223.937 45.4307 222.605 45.5953 221.278C45.9165 218.689 46.3396 216.106 46.7797 213.534C47.6962 208.179 49.0257 202.891 50.007 197.545C51.0127 192.066 51.7275 186.549 51.7577 180.971C51.7876 175.346 51.1923 169.731 50.8919 164.118C50.5866 158.417 50.2397 152.721 49.868 147.024ZM103.539 111.675C103.234 110.647 102.157 110.005 101.107 110.294C100.145 110.558 99.3499 111.727 99.7262 112.726C100.137 113.817 100.854 114.748 101.459 115.739C102.018 116.655 102.833 117.377 103.403 118.277L102.775 118.953C102.461 119.291 102.147 119.626 101.828 119.956L100.734 121.089C99.8823 121.97 99.0248 122.847 98.1431 123.697C95.5506 126.199 92.9171 128.618 90.0137 130.76C89.3527 131.248 88.6866 131.732 88.0019 132.186L87.7465 132.355C87.2768 132.663 86.7526 132.966 86.1851 132.913C84.8061 132.787 83.5601 131.322 82.6125 130.41L82.5629 130.363C80.2146 128.127 78.0401 125.684 76.139 123.056C75.7169 122.472 75.3081 121.879 74.9101 121.278C75.8293 120.204 75.6097 118.107 75.6604 116.805C75.6961 115.889 75.6989 114.973 75.7038 114.056L75.7064 113.872C75.7175 113.278 75.7443 112.709 75.3594 112.221C75.337 112.193 75.2906 112.194 75.2621 112.209C74.7349 112.485 74.5725 112.948 74.3476 113.467L74.3241 113.521C74.0503 114.143 73.7882 114.772 73.523 115.399C73.2453 116.054 72.9907 116.72 72.7327 117.384C72.6126 117.692 72.4979 118.002 72.3859 118.314C72.3176 118.513 72.2469 118.711 72.1744 118.909L72.1573 118.924C72.0615 119.005 71.9802 119.091 71.9102 119.18C71.6161 119.327 71.3824 119.595 71.2727 119.989C71.034 120.847 71.528 121.546 71.9686 122.227C73.7583 124.993 75.7985 127.628 78.0662 130.019C79.1928 131.207 80.3776 132.341 81.6113 133.417L81.8269 133.604C82.9351 134.557 84.1383 135.459 85.6183 135.682C87.3502 135.943 88.7598 135.081 90.0856 134.089L90.2179 133.989C91.4749 133.037 92.7064 132.052 93.8997 131.022C96.3326 128.921 98.647 126.665 100.701 124.19C102.699 121.782 104.674 119.09 105.906 116.193C105.981 116.017 105.783 115.832 105.629 115.98C105.027 116.552 104.448 117.156 103.876 117.768C103.86 116.868 104.027 115.96 103.934 115.053C103.821 113.952 103.854 112.735 103.539 111.675Z" fill="#1E1E1E"/>
<path fill-rule="evenodd" clip-rule="evenodd" d="M59.7581 89.0402C60.8311 81.2966 63.2852 73.7782 63.6375 65.9184C63.8471 62.555 64.0566 59.1915 64.2661 55.8278C64.3456 53.7271 67.0737 53.0183 68.1157 54.8794C70.4842 52.2519 74.7254 52.6389 77.9611 52.7186C97.0094 53.3938 115.111 66.2766 121.65 84.2391C121.807 84.6674 121.759 85.1231 121.581 85.531C124.629 95.6976 113.851 102.244 106.5 106.777C103.518 109.929 100.012 112.548 96.0541 114.342C91.501 116.485 86.4326 117.679 81.4021 117.794C80.2978 117.819 79.6345 116.926 79.5547 116.001C77.9498 115.628 75.2035 116.059 74.3548 114.414C64.6762 110.209 58.37 99.5508 59.7581 89.0402V89.0402Z" fill="white"/>
<path fill-rule="evenodd" clip-rule="evenodd" d="M64.2868 61.5786C64.3141 61.3276 63.9518 61.3199 63.8772 61.5232C63.2638 63.1948 62.6278 64.855 62.1419 66.569C61.6734 68.2208 61.336 69.9101 60.9943 71.5922C60.4276 74.3837 59.9403 77.1958 59.5372 80.0169C58.6757 79.344 57.549 79.2827 56.488 79.8064C55.9901 80.052 55.7995 80.7016 55.9189 81.2054C56.0147 81.6097 56.132 82.0119 56.2726 82.4059C55.972 82.6721 55.7165 83.0003 55.531 83.3772C55.0426 84.3699 55.2 85.4119 55.6382 86.3589C55.6048 86.4154 55.5718 86.4722 55.5406 86.5325C54.9064 87.7646 55.2457 88.868 55.7092 90.0702C56.0562 90.9698 55.8625 91.9827 56.611 92.6618C56.8713 93.4981 57.2617 94.2758 57.8301 94.9784C57.9591 95.2148 58.1525 95.4048 58.3819 95.5446C58.4396 96.8644 58.5789 98.1797 58.8408 99.4836C59.858 104.546 63.0863 109.057 67.0827 112.238C70.9934 115.352 75.5862 117.212 80.542 117.813C82.9483 118.105 85.3583 118.013 87.745 117.596L88.0423 117.543C90.2445 117.144 92.9096 116.482 94.4324 114.82C95.2332 113.946 94.765 112.023 93.3492 112.205C92.5991 112.301 91.9462 112.421 91.2399 112.698C90.6891 112.914 90.1373 113.122 89.5718 113.298C88.4887 113.636 87.3685 113.899 86.2441 114.044C83.901 114.347 81.4663 114.267 79.1503 113.81C74.9388 112.979 70.8473 111.062 67.6513 108.175C63.9362 104.82 61.7584 100.478 61.4379 95.4695C61.081 89.8915 61.7249 84.1798 62.2594 78.6308C62.5374 75.7442 62.8904 72.8635 63.3154 69.995C63.7307 67.1922 63.9796 64.3933 64.2868 61.5786ZM97.165 43.5673L96.985 43.5396C89.833 42.4509 82.308 42.5281 75.5854 45.4805C74.297 46.0468 73.036 46.7297 71.8486 47.5222C70.9981 47.4334 70.1426 47.3613 69.3025 47.3495C68.2452 47.3356 67.2135 47.885 67.0835 48.9548C66.0928 49.078 65.1806 49.4425 64.5972 50.1718C64.3698 50.4558 64.2175 50.7844 64.1404 51.1267C63.5314 51.2706 62.9343 51.4913 62.3679 51.7822C61.6801 52.1365 61.2832 53.1224 61.5261 53.8517C61.5822 54.0172 61.646 54.1785 61.7175 54.3363L61.7725 54.454L61.74 54.4985C61.1908 55.3816 61.5723 56.5403 62.4141 57.0675C63.0455 57.4629 63.7504 57.7778 64.4759 57.9301C64.416 58.2211 64.3613 58.5137 64.3168 58.8098C64.2997 58.9298 64.4535 59.0154 64.5221 58.8971C64.5221 58.8971 64.262 59.7067 63.87 60.5986C63.7162 60.9493 64.209 61.2608 64.397 60.9065C64.8966 59.9617 65.2065 58.993 65.6599 58.0191C66.0789 57.9917 66.4966 57.8959 66.8987 57.7127C67.1622 57.5929 67.3622 57.391 67.5059 57.1496C67.5146 57.1599 67.5196 57.1719 67.5283 57.1839C68.8783 58.9211 71.5167 59.5304 73.5562 60.0798C75.7461 60.6705 77.9877 61.0348 80.2375 61.3036C84.1661 61.7708 88.1254 61.8581 92.0725 62.0397C92.3339 62.0515 92.5949 62.0647 92.856 62.0774C94.4592 63.4842 96.5242 64.3585 98.6424 64.6243C99.7157 64.7588 100.985 64.7246 102.189 64.4504C102.624 64.8954 103.175 65.2251 103.776 65.3943C103.884 67.6363 105.134 69.7589 107.023 70.9962L106.989 71.1295C106.52 73.0439 106.526 75.1366 108.209 76.4672C108.437 76.6472 108.686 76.8016 108.948 76.9296L108.89 77.0619C108.021 79.0942 107.743 81.3391 109.377 83.0255C110.04 83.709 111.203 83.5471 111.7 82.7626L111.724 82.7229C111.752 82.6761 111.782 82.6313 111.81 82.5854C111.855 82.6762 111.922 82.7527 112.023 82.7954C112.644 83.0626 112.892 82.8656 113.458 82.5901C113.982 82.3333 114.535 82.1416 115.099 81.9929C115.56 81.8729 116.018 81.7873 116.48 81.7377C119.399 82.8536 121.285 86.2767 120.836 89.4893C120.593 91.2385 119.633 92.9706 117.96 93.6963C117.228 94.0146 116.367 94.1481 115.575 94.0403C114.502 93.8948 113.678 93.2189 112.567 93.6056C112.129 93.7579 111.855 94.1021 111.831 94.5728C111.792 95.312 112.054 95.8665 112.495 96.2773C111.717 96.9277 111.089 97.8314 110.413 98.5521C109.568 99.4539 108.71 100.356 107.797 101.188C106.934 101.977 106.017 102.709 105.045 103.36L104.943 103.427C103.726 104.22 102.192 104.925 102.133 106.583C102.115 107.082 102.417 107.541 102.828 107.796C104.363 108.748 106.033 107.498 107.236 106.583C107.72 106.215 108.19 105.833 108.644 105.437C108.947 105.461 109.277 105.412 109.621 105.259C109.841 105.164 110.057 105.051 110.269 104.931C110.959 105.104 111.609 104.951 112.144 104.59C112.916 104.78 113.734 104.803 114.429 104.65C115.063 104.51 115.63 104.21 116.097 103.808C117.072 104.12 118.155 104.061 119.117 103.471C119.693 103.117 120.143 102.612 120.388 102.021C120.513 101.826 120.592 101.599 120.598 101.348L120.599 101.253C121.437 101.272 122.277 100.984 122.925 100.32C123.521 99.7107 123.812 98.9509 123.844 98.1788C124.688 97.9394 125.459 97.4478 126.046 96.6898C127.018 95.4335 127.148 93.8811 126.648 92.4948C126.681 92.4212 126.71 92.3459 126.736 92.2706C127.511 91.1769 128.023 89.8573 127.981 88.5343C127.976 88.3289 127.949 88.1271 127.908 87.9268C128.671 87.521 129.232 86.809 129.292 85.9036C129.338 85.1933 129.083 84.4984 128.623 83.973C128.847 83.4373 128.947 82.8553 128.878 82.2734C128.808 81.6761 128.597 81.1575 128.289 80.7246C128.296 80.5672 128.288 80.4078 128.262 80.2452C128.293 80.0861 128.319 79.9218 128.332 79.7542C128.478 77.9192 127.212 76.3138 125.67 75.4666C125.264 75.2441 124.826 75.0627 124.388 74.9086C124.07 74.7957 123.591 74.758 123.31 74.5509C123.322 74.5424 123.206 74.3919 123.186 74.3113C123.163 74.212 123.139 74.1145 123.127 74.0135C123.081 73.589 123.115 73.1526 123.124 72.7264C123.162 70.7924 123.102 68.8498 122.898 66.926C122.52 63.3591 121.587 59.8693 119.77 56.7526C118.246 54.1407 116.158 51.9346 113.765 50.1049C108.997 46.4623 103.047 44.4817 97.165 43.5673ZM119.261 87.925C119.881 86.4329 116.959 86.4181 116.187 86.4891L116.164 86.4912C114.425 86.6643 111.707 87.5009 110.995 89.2561C110.701 89.9826 111.572 90.7701 112.27 90.5312C112.953 90.2974 113.336 89.7952 113.884 89.3558C114.028 89.2405 114.177 89.1328 114.33 89.0289C114.25 89.285 114.121 89.5215 113.943 89.6982L113.9 89.7379C113.059 90.494 114.564 91.6824 115.122 90.6809C115.42 90.1481 115.539 89.5635 115.446 88.9584C115.418 88.7799 115.371 88.6166 115.301 88.4609C115.356 88.4332 115.411 88.403 115.467 88.3763L115.567 88.3298C116.237 88.0258 119.095 86.8323 119.072 87.8995C119.069 88.0176 119.222 88.0178 119.261 87.925Z" fill="#1E1E1E"/>
<path fill-rule="evenodd" clip-rule="evenodd" d="M79.0647 104.328C80.2149 103.859 81.2411 103.076 81.9914 102.076C82.2523 101.728 82.3199 101.361 82.2652 101.025C82.2036 100.648 81.9803 100.305 81.6758 100.076C81.3703 99.8455 80.9881 99.732 80.6187 99.7898C80.2976 99.8401 79.978 100.016 79.7251 100.381L79.6723 100.454C79.2262 101.057 78.645 101.553 77.9827 101.872C77.3443 102.179 76.6304 102.323 75.8916 102.24C74.4845 102.081 73.5146 101.319 72.4838 100.286C72.356 100.155 72.2281 100.021 72.0997 99.8837C72.0185 99.7598 71.9059 99.6801 71.7809 99.6383C71.6421 99.5919 71.4851 99.5945 71.3413 99.6447C71.2026 99.6931 71.0786 99.7849 70.9954 99.907C70.9164 100.023 70.8716 100.166 70.8861 100.331C70.9805 101.403 71.5404 102.359 72.3357 103.109C73.219 103.943 74.3899 104.52 75.4922 104.722C76.7067 104.945 77.9441 104.786 79.0647 104.328V104.328ZM74.9194 87.8017C73.6273 88.5873 71.6586 90.4192 73.0486 92.3668C74.6847 94.0841 77.0403 92.1151 78.2011 91.2246C79.2774 90.5345 80.4868 92.3094 79.4881 93.1153C71.1002 99.3274 67.6961 88.0071 74.2659 86.878C74.9892 86.7536 75.2579 87.5586 74.9194 87.8017ZM89.9506 80.5754C89.8079 78.8029 87.1092 78.4004 86.8407 80.1544C86.6003 81.7256 86.8833 83.1689 87.5908 84.5835C88.2668 85.935 89.9659 85.3045 90.0944 84.0739C90.2667 82.4243 90.0394 81.678 89.9506 80.5754ZM69.4077 79.7907C69.0315 79.2978 68.4882 78.9613 67.8374 79.1514C65.8038 79.7458 66.4032 82.6337 67.1174 84.0394C67.5054 84.8028 68.7598 84.9964 69.3266 84.3242C70.2506 83.2282 70.693 81.0393 69.5184 79.9596C69.4866 79.9038 69.4512 79.8475 69.4077 79.7907ZM87.6195 72.8194L87.2983 72.7631C86.3046 72.5912 85.069 72.426 84.366 73.2252C83.9932 73.649 83.8649 74.4366 84.366 74.8423C85.2475 75.556 86.2221 75.2794 87.2785 75.3398C88.1491 75.3898 88.9857 75.5339 89.8243 75.7737C91.664 76.2996 93.163 77.2598 94.7342 78.3141C94.9404 78.4524 95.1508 78.1887 95.0524 77.9958C94.1454 76.2187 92.3877 74.7589 90.6271 73.8691C89.6874 73.3941 88.6591 73.0001 87.6195 72.8194ZM71.2615 72.0233L71.0156 72.0737C68.3401 72.6331 64.8639 73.7506 63.5969 76.3795C63.5486 76.7512 63.5996 76.8309 63.6411 76.8829L63.6549 76.9002C63.6891 76.9447 63.7164 77.006 63.8775 77.0565C63.9222 77.0459 63.9673 77.0346 64.0129 77.0227C64.5937 76.8704 65.0532 76.6607 65.498 76.443L65.9804 76.2053C66.54 75.9309 67.1045 75.6664 67.7028 75.4711C68.9795 75.0546 70.2928 74.7611 71.6264 74.6044C71.9155 74.5705 72.1938 74.4729 72.4134 74.3056C72.6218 74.1469 72.7811 73.9271 72.8537 73.6349C72.9478 73.2569 72.9207 72.9706 72.7179 72.6295C72.5654 72.3734 72.3472 72.1958 72.0967 72.0939C71.8413 71.9899 71.5505 71.9654 71.2615 72.0233Z" fill="#1E1E1E"/>
<path fill-rule="evenodd" clip-rule="evenodd" d="M74.4495 112.738C74.4495 112.738 82.0447 113.855 85.4444 112.277C88.8339 110.704 92.131 109.182 95.2057 107.099C98.3557 104.964 101.028 102.429 102.936 99.1849C104.71 96.166 106.185 92.9626 107.67 89.7838C107.757 89.5981 108.61 87.7515 108.911 87.1322C109.375 86.172 110.73 86.4734 110.73 87.9639C110.73 89.4544 110.796 100.742 108.192 105.183C105.843 109.193 101.861 111.995 97.9057 114.441C93.5289 117.145 87.7149 120.069 82.4929 120.841C77.7671 121.54 72.3741 119.578 68.9521 116.345C65.3744 112.964 64.3614 108.37 62.5153 103.971C62.1029 102.988 63.5647 102.395 63.9936 103.362C64.8011 105.183 74.4495 112.738 74.4495 112.738Z" fill="#1E1E1E"/>
<path fill-rule="evenodd" clip-rule="evenodd" d="M60.4999 85.2455C60.9838 86.5627 61.7202 87.934 62.6207 89.0426C66.2641 92.1288 69.8043 90.42 71.6019 86.2372C72.285 83.2812 70.4715 80.097 68.5498 77.9225C65.7746 75.14 61.2454 76.6003 59.9693 79.9081C59.8918 80.3366 59.8449 80.7642 59.8225 81.1904C59.849 82.5752 60.0159 83.7587 60.4999 85.0744M95.5207 82.589C90.721 76.8781 81.7417 76.5728 81.9708 85.3624C83.0018 96.4882 100.364 93.7574 95.5207 82.589ZM58.9903 77.8249C59.1584 77.54 59.3451 77.2642 59.5489 77.0005C59.6242 76.9556 59.6675 76.5579 59.9443 76.5284C63.6447 72.4449 70.1453 74.7618 72.4942 78.8308C72.9231 79.3453 73.273 79.9476 73.531 80.5839C75.8454 80.1593 78.5434 80.2418 80.6959 81.1162C82.8302 75.5414 89.2918 75.0437 93.55 77.4256C96.1984 78.7286 97.9158 81.4574 100.492 82.9563C106.547 83.3923 113.045 82.0352 118.991 83.5545C123.68 84.5297 119.76 86.9049 118.974 85.3198C113.368 83.663 106.727 85.0631 100.906 84.6898C100.301 85.7138 99.1407 86.5518 97.984 86.516C96.7348 97.5933 80.5857 95.7565 80.0286 85.9094C79.3967 84.9101 78.6108 83.9536 77.486 83.331C77.0554 83.2418 76.6394 83.1259 76.2592 82.9466C75.6094 82.8548 74.6081 83.1304 74.0103 83.6716C71.9624 95.9632 60.1642 94.5317 58.0557 83.7637C58.0138 83.7209 57.8966 83.5603 57.8066 83.3027C57.0849 82.3482 55.3181 81.9934 55.6004 80.382C55.8518 78.7702 57.8865 78.7894 58.9903 77.8249Z" fill="#1E1E1E"/>
</svg>
