<svg width="195" height="262" viewBox="0 0 195 262" fill="none" xmlns="http://www.w3.org/2000/svg">
<path fill-rule="evenodd" clip-rule="evenodd" d="M101.768 108.911C97.5448 105.694 86.9413 104.247 82.4335 107.345C77.9812 110.456 77.4958 115.486 75.4211 120.114C73.4635 119.19 70.2309 120.513 69.6633 122.33C68.9594 123.187 68.9278 125.594 68.4424 126.746C47.3216 130.109 44.1151 146.581 41.5729 165.281C38.2098 184.257 30.5751 203.191 33.8895 222.718C33.4576 223.343 33.1172 223.95 32.8023 224.672C32.048 225.956 33.0196 227.773 34.5412 227.703C36.5107 227.53 38.4608 227.294 40.4395 227.22C45.9249 227.03 51.4153 227.052 56.9028 227.122L57.651 227.132C85.3063 227.476 112.96 228.155 140.616 228.335C141.62 228.336 142.111 227.436 141.977 226.548C141.707 224.76 141.457 222.972 141.196 221.183C147.737 222.912 154.691 223.347 161.214 221.365C161.671 220.9 160.151 221.152 159.91 221.082C165.913 216.978 164.12 208.334 163.589 202.107C160.282 180.773 159.116 157.167 146.34 138.962C140.813 131.533 132.71 125.65 123.399 124.327L123.141 124.291C120.418 123.928 117.384 123.811 115.004 122.33C112.327 120.192 111.186 116.241 108.369 116.204C107.439 116.192 106.174 117.369 104.812 118.168C104.711 116.41 103.764 114.927 103.555 113.564L103.538 113.447C103.32 111.858 103.618 110.429 101.768 108.911ZM56.3779 165.845C62.3135 161.72 77.6461 163.793 77.9972 164.024C78.77 164.532 79.1028 164.577 79.5208 165.237C79.9335 165.292 80.3458 165.349 80.7579 165.408C81.5844 165.678 80.9719 166.695 80.0172 166.332C80.5914 168.809 78.9015 170.571 78.2287 173.02C78.0102 173.815 78.2208 175.245 78.2287 176.058C78.1634 177.094 77.0184 178.318 77.2092 179.357C77.8877 183.052 81.5694 186.657 80.0172 190.24C78.9889 192.264 75.8961 193.296 73.8398 193.984C69.5796 195.62 62.1566 193.923 59.6813 190.24C58.361 188.276 56.8314 183.321 56.0442 181.785L55.8697 179.347C55.4394 173.287 55.0567 166.763 56.3779 165.845Z" fill="white"/>
<path fill-rule="evenodd" clip-rule="evenodd" d="M109.403 115.847C108.994 115.484 108.387 115.94 108.648 116.431C109.233 117.533 109.833 118.577 110.618 119.551C111.094 120.142 111.605 120.7 112.121 121.253C110.795 122.401 109.657 123.826 108.583 125.162C107.209 126.87 105.91 128.651 104.368 130.214C102.847 131.755 101.166 132.833 99.1324 133.552L98.7217 133.694C96.6791 134.412 94.496 135.38 93.3447 137.315C93.1176 137.697 93.5748 138.168 93.9591 137.93C95.9597 136.691 98.3105 136.441 100.488 135.623C102.592 134.832 104.426 133.615 106.046 132.061C107.664 130.51 109.022 128.745 110.438 127.018C111.839 125.31 113.348 123.851 115.005 122.406C117.562 124.127 120.481 124.876 123.449 125.611L123.773 125.692C126.745 126.428 129.7 127.282 132.488 128.564C134.946 129.694 137.364 131.043 139.366 132.881C141.492 134.833 143.146 137.325 144.66 139.762C148.047 145.214 150.428 151.187 152.524 157.233C154.704 163.522 156.527 169.936 158 176.427C158.748 179.729 159.356 183.054 159.856 186.402C160.097 188.015 160.31 189.631 160.498 191.25C160.698 192.98 160.744 194.759 161.275 196.422C161.502 197.135 162.039 197.43 162.577 197.405L162.686 198.771C162.831 200.592 162.965 202.413 163.011 204.245C163.087 207.291 163.052 210.329 162.833 213.368L162.802 213.783C162.63 216.001 162.246 218.494 160.578 220.119C158.851 221.801 156.195 222.33 153.867 222.36C148.445 222.431 143.227 219.869 138.429 217.62C133.488 215.305 128.682 212.735 123.991 209.948C121.602 208.529 119.239 207.062 116.906 205.553C115.761 204.812 114.625 204.058 113.496 203.293C112.85 202.854 112.238 202.374 111.58 201.985C111.902 201.684 112.046 201.212 111.776 200.8C113.678 199.149 114.469 196.202 114.562 193.818C114.637 191.893 114.354 189.974 114.13 188.067C114.017 187.106 113.878 186.146 113.733 185.189C113.676 184.811 113.633 184.407 113.566 184.008C118.701 186.831 123.98 189.344 129.399 191.578C132.177 192.723 134.99 193.752 137.842 194.695L138.42 194.886C141.122 195.77 143.889 196.606 146.683 197.112C146.832 197.139 146.954 196.919 146.794 196.848C144.072 195.647 141.255 194.633 138.492 193.526L138.037 193.341C138.09 193.338 138.144 193.331 138.2 193.318C139.821 192.926 141.429 192.323 143.018 191.816C144.494 191.345 146.151 191.049 147.53 190.337C147.636 190.283 147.577 190.135 147.473 190.128C145.923 190.021 144.241 190.472 142.721 190.738L142.151 190.838C141.194 191.007 140.217 191.188 139.265 191.425C139.231 191.106 139.053 190.786 138.799 190.598C136.011 188.532 136.294 184.36 135.996 181.284L135.775 178.999C135.386 175.002 134.974 171.005 134.349 167.038C134.316 166.826 133.988 166.887 133.987 167.087C133.954 172.005 134.326 176.9 134.512 181.811L134.54 182.616C134.643 185.646 134.724 188.792 136.632 191.124C136.365 190.968 136.004 190.968 135.788 191.225C135.522 191.541 135.369 191.896 135.374 192.244C133.65 191.521 131.934 190.78 130.226 190.023C124.735 187.589 119.359 184.866 114.125 181.919C113.562 181.602 113.027 181.851 112.748 182.27L112.708 182.264C112.701 182.263 112.694 182.262 112.687 182.262L112.647 182.26C112.646 182.26 112.644 182.261 112.643 182.261C111.906 181.856 110.902 182.144 110.27 182.735C110.252 182.752 110.236 182.772 110.219 182.79C109.419 182.431 108.671 181.946 107.993 181.331C106.605 180.072 105.43 178.517 104.405 176.956C102.517 174.083 100.914 170.887 98.3645 168.521C96.293 166.6 93.7248 165.403 91.0305 164.652C91.0418 164.573 91.0117 164.489 90.9573 164.433C90.8189 164.291 90.7202 164.242 90.5414 164.328C90.5272 164.335 90.5186 164.345 90.5128 164.355L90.2499 163.906C90.1064 163.662 89.959 163.417 89.908 163.352C89.602 162.967 89.2872 162.584 88.9676 162.21C88.4257 161.576 87.8082 160.951 87.0932 160.511C85.5277 159.549 83.8819 160.094 82.2723 160.62C81.2998 160.937 80.3305 161.265 79.3597 161.588L79.2596 161.621C78.5357 161.853 77.6886 162.057 77.3649 162.824C77.2367 163.128 77.2169 163.443 77.2766 163.749C70.4011 162 62.7646 162.803 56.0553 164.856C55.7978 164.935 55.5407 165.147 55.4864 165.425C54.7177 169.369 54.3753 173.413 54.7232 177.424C55.0233 180.886 55.7901 184.279 57.2352 187.448L57.3174 187.627C58.6755 190.565 60.828 194.186 64.1153 195.107C66.1002 195.662 68.2956 195.335 70.32 195.233C72.2875 195.134 74.2986 195.119 76.2474 194.81C77.983 194.534 79.5038 193.756 80.5764 192.344C81.5017 191.127 81.989 189.655 82.3882 188.19C82.5709 188.249 82.7524 188.31 82.9311 188.38C83.6851 188.675 84.324 189.15 84.9016 189.71C86.1214 190.892 87.0675 192.327 88.3438 193.454C89.499 194.475 90.8155 195.269 92.2275 195.879C95.1536 197.144 98.2925 197.649 101.388 198.319L101.603 198.367C103.933 198.878 106.312 199.506 108.368 200.719C108.409 201.077 108.571 201.413 108.832 201.633C108.469 201.974 108.316 202.513 108.634 203.02C109.525 204.433 111.058 205.237 112.435 206.141L112.525 206.2C113.879 207.099 115.245 207.979 116.623 208.841C119.423 210.595 122.281 212.252 125.18 213.836C129.843 216.384 134.606 218.788 139.455 220.968C139.164 222.4 139.27 223.877 139.051 225.319L139.018 225.525C138.924 226.06 139.05 226.508 139.419 226.857L139.458 226.893L139.457 226.888L139.492 226.92L139.503 226.93L139.499 226.927C139.542 226.966 139.586 227.002 139.63 227.033L139.687 227.069C140.042 227.285 140.499 227.283 140.863 227.092L140.904 227.069L140.974 227.029C141.454 226.753 141.785 226.069 141.586 225.525C141.096 224.189 140.911 222.762 140.459 221.417L140.818 221.577L141.291 221.783C146.403 223.995 152.081 225.857 157.651 224.349C160.112 223.683 162.413 222.274 163.644 219.977C164.856 217.716 165.027 215.092 165.091 212.578C165.171 209.474 165.004 206.324 164.595 203.247C164.321 201.182 163.989 199.078 163.476 197.034C163.74 196.802 163.933 196.468 163.985 196.055C164.226 194.103 163.803 192.074 163.544 190.132C163.291 188.236 163.012 186.343 162.695 184.457C162.057 180.647 161.315 176.845 160.452 173.08C158.915 166.379 156.886 159.798 154.442 153.373L154.228 152.814C151.971 146.941 149.356 141.194 145.716 136.036C143.975 133.568 142.134 131.33 139.674 129.552C137.369 127.885 134.769 126.685 132.086 125.768C129.4 124.851 126.639 124.236 123.829 123.853C120.976 123.465 117.964 123.226 115.302 122.056C115.639 121.452 115.35 120.637 114.783 120.262C112.876 119.002 111.113 117.362 109.403 115.847ZM48.3542 170.655C48.2743 170.533 48.0846 170.61 48.1197 170.753C49.0472 174.555 49.9179 178.364 50.4865 182.237C51.5128 189.229 51.324 196.312 51.2401 203.355L51.2359 203.719C51.1928 207.513 51.1329 211.307 51.0075 215.1C50.9442 217.016 50.8189 218.952 50.887 220.869C50.9241 221.91 51.2013 222.894 51.2995 223.921C51.3856 224.82 51.3089 225.733 51.266 226.633C51.2372 227.231 52.1201 227.205 52.1802 226.633L52.257 225.892C52.3567 224.954 52.48 224.022 52.7872 223.124C53.1566 222.045 53.3339 220.985 53.4621 219.851C53.6583 218.115 53.7456 216.361 53.8214 214.612L53.8732 213.402C54.1896 206.093 54.1785 198.749 53.6663 191.448L53.6289 190.927C53.1217 184.025 52.2418 176.568 48.3542 170.655ZM68.1255 127.156C68.3678 127.056 68.2829 126.69 68.0147 126.754L67.5268 126.87C63.9517 127.727 60.4416 128.655 57.1047 130.249C53.7657 131.844 50.9388 134.225 48.6926 137.152C44.3262 142.843 42.5117 149.76 41.0792 156.67C39.4873 164.348 38.0379 172.054 36.4322 179.73L36.134 181.16C34.6482 188.309 33.2453 195.462 32.2117 202.696L32.1374 203.22C31.0951 210.659 30.4681 218.355 31.6055 225.813C31.8305 227.289 34.2851 226.921 34.1891 225.464C33.9119 221.249 33.7134 217.057 33.9052 212.833C34.0972 208.609 34.4933 204.402 35.0837 200.215C35.5806 196.691 36.3214 193.21 36.9769 189.714L37.0796 189.162C37.6285 186.189 38.1944 183.218 38.759 180.247L39.6027 175.799C40.8673 169.139 42.1567 162.473 43.6135 155.855L43.7 155.465C45.1257 149.098 47.2277 142.428 51.5043 137.372C55.8442 132.24 62.057 129.656 68.1255 127.156ZM83.8952 194.693C83.7909 194.461 83.4258 194.486 83.3135 194.693C82.8737 195.505 82.8248 196.541 82.7417 197.458L82.733 197.552C82.6272 198.67 82.5336 199.792 82.4763 200.914C82.3677 203.043 82.3157 205.169 82.3223 207.301C82.3292 209.485 82.3731 211.667 82.4909 213.849L82.5228 214.433C82.6303 216.329 82.8105 218.443 83.711 220.101C84.0383 220.703 84.9285 220.526 85.1181 219.917C85.7392 217.922 85.4202 215.556 85.261 213.513L85.1373 211.919C85.0148 210.324 84.898 208.729 84.8053 207.133C84.6784 204.949 84.5736 202.763 84.4729 200.578C84.4401 199.868 84.4047 199.158 84.3673 198.448L84.3098 197.384C84.2607 196.493 84.2648 195.516 83.8952 194.693ZM153.729 197.521L153.454 197.255C152.61 196.429 151.543 195.156 150.296 195.235C149.798 195.267 149.481 195.68 149.584 196.17C149.805 197.216 150.872 197.76 151.64 198.399C152.482 199.099 153.276 199.847 154.067 200.602C154.77 201.272 155.446 201.961 156.105 202.671L156.351 202.938C156.588 203.196 158.271 204.719 158.089 205.114L158.079 205.132C158.028 205.207 158.113 205.312 158.197 205.285C158.924 205.055 158.878 204.432 158.603 203.801C158.075 202.588 157.151 201.465 156.343 200.429C155.538 199.396 154.667 198.433 153.729 197.521ZM81.2615 167.098C81.8235 165.769 83.894 165.797 85.0694 165.876C88.0294 166.076 91.2321 166.825 93.8658 168.209C96.5963 169.644 98.4356 171.943 100.081 174.485L100.158 174.604C101.762 177.099 103.307 180.051 105.819 181.766C107.098 182.64 108.592 183.438 110.144 183.783C110.251 183.971 110.424 184.119 110.65 184.173L110.755 184.197C111.197 184.295 111.884 184.403 112.477 184.338C112.473 184.628 112.476 184.916 112.469 185.192C112.448 185.98 112.439 186.771 112.439 187.56C112.439 189.212 112.528 190.868 112.459 192.521C112.398 193.982 112.191 195.509 111.49 196.816C110.975 197.774 110.296 198.408 109.477 199.014C107.46 197.784 105.18 197.035 102.865 196.472C100.067 195.79 97.2009 195.336 94.4657 194.412C93.1492 193.967 91.8836 193.385 90.7369 192.594C89.5199 191.755 88.5903 190.619 87.6339 189.508L87.4844 189.335C86.5083 188.215 85.4432 187.144 84.0637 186.537C82.8758 186.014 81.3101 185.921 80.2713 185.111C79.7282 184.688 79.6827 184.074 79.6256 183.444C80.2908 183.54 80.9951 183.387 81.6581 183.309L82.0016 183.269C82.6285 183.195 83.2411 183.113 83.8582 182.953C83.9729 182.923 83.9729 182.751 83.8582 182.721C83.1288 182.532 82.4059 182.452 81.6581 182.365L81.4824 182.343C80.8058 182.254 80.0947 182.12 79.431 182.269C79.312 181.816 79.14 181.383 78.8988 180.95C78.5602 180.341 77.9194 179.651 77.8328 178.939C77.807 178.727 77.8564 178.477 77.9565 178.289L77.991 178.225C78.0331 178.149 78.0829 178.073 78.1558 178.026C78.1639 178.036 78.181 178.046 78.2181 178.058C78.7289 178.219 79.1744 177.969 79.4109 177.583C80.4147 177.708 81.5102 177.666 82.4516 177.708L83.4034 177.754C84.4205 177.8 85.4837 177.821 86.4394 177.615C86.5729 177.587 86.6133 177.364 86.4796 177.307C85.3047 176.805 83.8794 176.644 82.6215 176.451C81.919 176.343 81.2113 176.261 80.5067 176.166C80.0376 176.103 79.5397 175.998 79.0536 175.973C77.8349 174.455 78.4915 172.061 80.1876 171.408C80.8055 171.679 81.361 171.521 82.036 171.463C82.7098 171.406 83.3853 171.366 84.0618 171.369C85.4175 171.375 86.854 171.732 88.1964 171.578C88.4148 171.553 88.6177 171.263 88.4006 171.085C87.3729 170.246 85.9002 169.973 84.5958 169.794L84.3255 169.758C83.8882 169.701 83.3564 169.617 82.8048 169.567C82.68 169.324 82.4562 169.14 82.12 169.094C82.0201 169.08 81.9197 169.072 81.8194 169.064L81.821 169.054C81.001 169.014 81.0366 167.629 81.2615 167.098ZM137.394 193.015C137.408 193.037 137.424 193.058 137.441 193.079L137.467 193.109L137.332 193.054L137.394 193.015ZM66.9538 164.128C70.4049 163.757 73.8609 163.836 77.3223 163.935C77.5991 164.841 78.5627 165.613 79.4964 165.642C78.7652 166.755 78.6897 168.262 79.2025 169.443C78.1138 169.876 77.1758 170.655 76.6064 171.764C75.8168 173.302 75.9201 175.013 76.7005 176.434C76.0344 177.037 75.6414 178.016 75.6808 178.939C75.7247 179.969 76.3381 180.848 76.8478 181.701C77.3986 182.623 77.4171 183.434 77.5863 184.467C77.8339 185.977 78.8526 186.894 80.1634 187.466L80.0937 187.74C79.7558 189.056 79.3353 190.445 78.3694 191.407C77.1269 192.645 75.1994 192.633 73.5577 192.712L73.4785 192.716C71.9753 192.791 70.4728 192.879 68.9701 192.964L67.843 193.027C66.1129 193.122 64.4514 193.134 63.0389 191.989C60.733 190.122 59.1523 187.031 58.1517 184.295C56.0516 178.551 56.0264 172.249 56.9904 166.267C60.2233 165.225 63.5777 164.491 66.9538 164.128ZM95.6538 173.657L95.6284 173.658C94.9178 173.74 94.4297 174.315 94.2558 174.998C94.0033 175.99 94.1272 176.887 93.5196 177.783C92.8946 178.704 92.5103 179.442 92.4194 180.58C92.3821 181.048 92.3992 181.515 92.295 181.974L92.2195 182.295C92.1393 182.637 92.0736 182.967 92.1135 183.335C92.1499 183.67 92.3132 183.931 92.6494 184.039C93.7449 184.389 94.5909 183.582 94.8738 182.56C95.1183 181.678 94.7919 180.627 95.1368 179.799C95.3279 179.339 95.6804 178.955 95.8796 178.493C96.0769 178.035 96.1759 177.556 96.2076 177.058C96.2676 176.116 95.4347 174.984 95.8994 174.131C95.9984 173.949 95.8863 173.651 95.6538 173.657ZM110.206 163.935C109.464 163.785 108.623 163.439 107.891 163.726C107.515 163.874 107.329 164.333 107.647 164.652C108.199 165.205 109 165.236 109.743 165.366L109.809 165.378C110.687 165.54 111.567 165.695 112.449 165.841C114.107 166.116 115.769 166.358 117.437 166.565C119.15 166.777 120.868 166.966 122.588 167.108L123.254 167.162C124.707 167.279 126.219 167.366 127.645 167.144C127.852 167.111 127.819 166.81 127.645 166.757C126.083 166.284 124.369 166.157 122.755 165.957C121.038 165.744 119.324 165.519 117.614 165.252C115.908 164.985 114.203 164.699 112.505 164.383C111.738 164.24 110.971 164.091 110.206 163.935ZM83.437 162.417C84.088 162.186 84.8043 161.845 85.5097 161.959C86.7262 162.156 87.8089 163.342 88.7719 164.123L88.2884 164.029C85.8144 163.553 82.5382 163.041 80.4614 164.614C80.4561 164.605 80.452 164.596 80.446 164.587C80.2784 164.332 80.0842 164.133 79.8722 163.916C79.8519 163.897 79.8323 163.877 79.813 163.857L79.6987 163.735L79.9603 163.644C80.5206 163.446 81.1844 163.19 81.2893 163.153L81.2966 163.15C82.0109 162.908 82.7261 162.669 83.437 162.417ZM103.764 110.544C103.866 109.234 101.828 109.245 101.727 110.544C101.507 113.38 102.145 116.19 103.518 118.676C103.528 118.694 103.539 118.71 103.55 118.727C102.691 119.174 101.822 119.603 100.934 119.987C99.7981 120.477 98.6408 120.924 97.4628 121.303C96.3972 121.646 95.0844 121.781 94.1885 122.495C92.2994 124 93.0091 127.123 93.3725 129.147L93.4292 129.466C93.6102 130.508 93.741 131.577 93.302 132.576C92.8332 133.644 91.8851 134.436 91.0394 135.2L90.8686 135.355C90.1193 136.038 89.2632 136.868 88.7137 137.793C88.212 136.756 87.5281 135.908 86.805 134.953C86.2892 134.272 86.6564 134.048 87.027 133.382C87.3837 132.742 87.5579 132.059 87.4463 131.328C87.2405 129.979 86.1624 129.004 85.0893 128.272C83.8219 127.407 82.4075 126.767 81.0974 125.963C78.4053 124.31 75.7835 122.421 73.4215 120.323C73.3563 120.265 73.2434 120.341 73.2956 120.42C75.1614 123.259 77.3493 125.712 80.0381 127.795C81.1283 128.639 82.2737 129.339 83.4267 130.075L83.7581 130.288C84.2211 130.588 84.7985 130.989 85.0078 131.5C85.2184 132.013 84.7693 132.401 84.5275 132.827C83.7598 134.178 84.1302 135.439 85.0404 136.585L85.0828 136.637C85.9872 137.752 86.6726 138.789 87.0004 140.214C87.7048 143.273 86.7237 146.46 85.6967 149.333L85.6561 149.446C85.1006 150.994 84.5101 152.531 84.0274 154.104L83.8946 154.539C83.4573 155.987 83.0992 157.414 83.5898 158.902C83.7566 159.408 84.4466 159.528 84.7332 159.052C85.7442 157.372 85.9963 155.35 86.63 153.504C87.2477 151.704 87.9569 149.936 88.5535 148.129C89.3217 145.802 89.8359 143.298 89.5568 140.857C89.565 140.843 89.5741 140.83 89.5809 140.814L89.7765 140.387C90.3098 139.228 90.8248 138.216 91.7946 137.292C92.8062 136.329 93.9041 135.476 94.7001 134.31C96.429 131.777 95.3597 128.959 95.1509 126.189L95.127 125.849C95.0891 125.274 95.0683 124.492 95.4438 124.094C95.8663 123.646 96.8569 123.532 97.4175 123.333C98.866 122.821 100.293 122.223 101.653 121.506C102.947 120.823 104.201 120.068 105.368 119.184L105.96 118.739C106.893 118.035 107.861 117.265 108.487 116.306C108.559 116.196 108.436 116.018 108.306 116.071C107.261 116.495 106.307 117.169 105.33 117.756C105.315 117.72 105.297 117.684 105.277 117.647C104.068 115.459 103.571 113.034 103.764 110.544ZM70.4024 125.54C69.9863 124.399 68.0898 124.487 68.1655 125.843C68.2234 126.885 68.6657 127.825 69.07 128.771L69.1132 128.873C69.5306 129.859 70.0128 130.784 70.5898 131.687C71.6921 133.414 72.9834 135.017 74.3627 136.529C75.613 137.901 77.2542 138.739 79.1454 138.6C79.9422 138.541 80.7465 138.338 81.4448 137.94C82.2741 137.467 83.1748 136.047 84.2328 136.391C84.3352 136.424 84.4306 136.274 84.3422 136.203C83.1207 135.219 81.7343 136.745 80.5648 137.112C78.8027 137.666 76.9943 137.054 75.8601 135.629C74.6759 134.141 73.586 132.475 72.5908 130.855C72.0853 130.033 71.6242 129.179 71.2259 128.299C70.824 127.411 70.7326 126.446 70.4024 125.54ZM73.2429 118.515C73.2942 118.358 73.0984 118.208 72.96 118.298C72.1574 118.821 71.4619 119.511 70.7215 120.117C69.9001 120.788 69.0727 121.446 68.2324 122.094C67.0075 123.039 68.4281 124.778 69.5064 123.746C70.9819 122.334 72.598 120.488 73.2429 118.515ZM77.6495 112.991C77.3234 111.733 75.3949 112.252 75.6759 113.495L75.6851 113.533C76.2174 115.586 75.4593 117.676 73.8409 119.007L73.7813 119.056C72.7575 119.875 74.208 121.308 75.2218 120.497C77.435 118.725 78.3556 115.715 77.6495 112.991Z" fill="#1E1E1E"/>
<path fill-rule="evenodd" clip-rule="evenodd" d="M61.3339 81.8395C61.7023 78.6021 61.2256 71.8353 61.1937 71.4242C60.9917 68.8252 62.2091 58.5622 64.5104 59.5078C68.3708 56.4508 73.5124 55.7758 78.3203 55.4534C88.3069 54.7835 98.9309 56.3213 106.642 63.0442C110.456 66.5356 114.169 71.6136 113.87 76.9009C117.335 81.9127 122.22 88.7875 117.903 94.6466C116.435 96.5186 114.103 97.2157 112.259 98.6333C108.551 101.625 106.225 105.919 102.482 108.893C92.565 117.807 75.726 119.669 65.9826 109.53C58.4482 102.187 59.6665 91.2009 60.9917 81.8395C61.8827 75.5457 60.6154 88.1553 61.3339 81.8395Z" fill="white"/>
<path fill-rule="evenodd" clip-rule="evenodd" d="M91.6611 41.7246C88.9903 41.1854 86.2477 40.85 83.5202 40.9509L83.3099 40.9591C81.2578 41.0412 78.6588 41.2227 76.8686 42.4164C76.7656 42.313 76.6 42.2599 76.4497 42.3317C74.3223 43.3475 71.9823 44.0819 69.7423 44.8117C67.5125 45.5379 65.1993 46.0173 62.8622 46.2105C61.983 46.2833 61.2305 47.233 61.7872 48.0849C61.9197 48.2878 62.0487 48.4929 62.1772 48.6984C61.9623 48.676 61.7474 48.6529 61.5325 48.6312C60.8253 48.56 60.1188 49.3149 60.1608 50.0037C60.1869 50.4369 60.2337 50.8649 60.3028 51.2878C60.0335 51.2822 59.7657 51.3226 59.507 51.432C58.1971 51.9853 58.2883 53.5461 58.3863 54.7335C58.5222 56.3814 59.1383 58.1269 60.2822 59.3602C59.4281 60.2476 58.8235 61.3074 58.4628 62.5661C58.2012 63.4852 58.0556 64.4642 58.1274 65.421L58.1503 65.7074C58.2392 66.7457 58.4159 67.8952 59.1626 68.6421C59.5458 69.0272 60.0181 69.1675 60.4682 69.123C60.196 71.5158 60.0215 73.9222 59.8572 76.3201L59.7802 77.4662C59.4138 83.0082 59.1385 88.5862 59.2105 94.1373C59.2774 99.325 60.3021 104.36 63.4828 108.573C66.3797 112.408 70.5389 115.236 75.2442 116.31C77.7799 116.891 80.3686 116.932 82.9351 116.562C84.1791 116.382 85.4314 116.107 86.6122 115.672C87.9192 115.189 88.8585 114.479 89.738 113.415C90.1539 112.91 89.9537 111.835 89.1254 111.936C87.8728 112.088 86.7292 112.271 85.5283 112.641L85.3563 112.696C84.1601 113.079 82.9214 113.365 81.6708 113.486C79.1093 113.735 76.5088 113.485 74.055 112.708C70.0599 111.441 66.6191 108.619 64.4136 105.072C61.7958 100.869 61.4998 96.0971 61.5376 91.2636C61.5781 85.9598 61.7506 80.6529 62.0321 75.3546L62.08 74.4716C62.2288 71.7451 62.3726 69.0169 62.499 66.2887C62.5384 65.4329 62.5982 64.5703 62.7062 63.7163C63.6933 63.1378 64.5779 62.3402 65.1545 61.356C66.3128 61.8353 67.531 62.181 68.6519 62.4566C71.2482 63.0953 73.9436 63.2504 76.5863 62.8504C77.2991 63.1449 78.0261 63.4039 78.7642 63.6267C78.9637 63.7152 79.1632 63.8022 79.3625 63.8874C81.1421 64.6491 82.9472 65.2943 84.8257 65.7667L85.2872 65.8818C86.2758 66.1256 87.3496 66.3657 88.4017 66.441C88.5745 66.5078 88.761 66.5643 88.9648 66.6139C89.9228 66.8467 90.917 66.9203 91.8989 66.8381C92.8556 66.7577 93.5468 65.7907 93.0198 64.8853C92.6348 64.2246 92.2463 63.5656 91.8545 62.9084C93.2181 63.4766 94.6263 63.949 96.0464 64.3495C97.4802 64.7535 98.9345 65.0941 100.391 65.4073C101.169 65.5733 101.951 65.7205 102.728 65.8865C103.284 66.0046 104.138 66.0662 104.591 66.4325C105.092 66.8347 105.234 67.7726 105.424 68.3511C105.674 69.1025 105.909 69.8573 106.123 70.6206C106.548 72.1439 106.897 73.6895 107.168 75.2504C107.438 76.813 107.62 78.3911 107.721 79.9743C107.821 81.5557 107.777 83.1475 107.939 84.7221C108.027 85.5573 108.923 85.9869 109.585 85.4033C109.663 85.3348 109.741 85.2656 109.819 85.1956L109.934 85.0901C110.501 84.5766 111.05 84.0323 111.503 83.4196C111.586 83.3067 111.664 83.1886 111.738 83.0687C111.75 83.0687 111.76 83.0653 111.772 83.0568L111.898 82.9622C113.282 81.9318 115.593 80.5886 116.943 82.3003C117.373 82.8456 117.593 83.5399 117.776 84.2097L118.096 85.4086C118.303 86.1912 118.499 86.9782 118.613 87.7789C118.871 89.5726 118.741 91.6402 117.507 93.0779C117.015 93.653 116.335 94.0637 115.578 94.1716C115.155 94.2298 114.737 94.1579 114.318 94.1048C113.892 94.0518 113.482 94.1373 113.055 94.0963C112.378 94.0295 112.082 94.8408 112.335 95.3508C112.472 95.6247 112.633 95.8609 112.816 96.0611C112.669 96.1878 112.528 96.3247 112.393 96.4685C111.993 96.5968 111.634 96.8724 111.365 97.237C111.148 97.5313 111.035 97.8514 111.016 98.1886C110.992 98.2724 110.972 98.358 110.953 98.4453L110.585 99.0413C110.505 99.172 110.424 99.3011 110.344 99.4277C109.409 100.9 108.372 102.146 107.084 103.32C105.844 104.449 104.497 105.461 103.332 106.673L103.195 106.817C102.108 107.962 100.963 109.348 101.388 111.013C101.498 111.441 102.095 111.749 102.485 111.46C103.739 110.529 104.371 109.053 105.435 107.924C106.53 106.76 107.743 105.714 108.841 104.554C109.88 103.458 110.699 102.218 111.317 100.852C111.564 101.124 111.923 101.317 112.421 101.393C113.276 101.521 114.074 101.019 114.446 100.278C114.686 100.384 114.931 100.48 115.177 100.556C116.474 100.953 117.29 99.5099 116.801 98.4436C116.539 97.8719 116.212 97.3756 115.807 96.958C117.075 96.7834 118.365 96.1279 119.198 95.3097C121.289 93.2542 121.576 90.1648 121.106 87.4178C120.856 85.9613 120.425 84.4876 119.865 83.1201C119.768 82.8822 119.663 82.6426 119.549 82.4064C119.612 82.4047 119.677 82.3773 119.718 82.3242C120.096 81.8073 120.556 81.3846 120.837 80.8061C121.095 80.2755 121.383 79.7381 121.587 79.1852C122.006 78.0539 122.211 76.7771 122.348 75.5807C122.63 73.1315 122.521 70.6977 122.146 68.2638C121.508 64.1185 119.967 60.1514 117.696 56.6705C117.82 56.6055 117.938 56.5271 118.048 56.4343L118.103 56.3867L118.192 56.3066C118.84 55.7201 118.784 54.6207 118.192 54.0267L118.005 53.8392C117.768 53.6039 117.564 53.4175 117.181 53.1613C117.125 53.1235 117.067 53.0879 117.009 53.0547C117.209 52.6846 117.278 52.252 117.139 51.7746C116.653 50.1117 114.261 50.1705 112.745 50.8957C111.068 49.3983 109.208 48.0984 107.192 47.0458C102.391 44.5401 96.9619 42.7926 91.6611 41.7246ZM116.479 85.5231C115.582 85.2304 114.392 85.8449 113.586 86.2146C112.564 86.6835 111.695 87.3767 110.853 88.1092C110.434 88.4755 110.359 89.0746 110.463 89.5863C110.474 89.6377 110.484 89.6907 110.496 89.7438C110.607 90.2898 111.216 90.7194 111.755 90.704C112.883 90.6731 113.42 89.6993 114.058 88.8743C114.133 89.0078 114.227 89.131 114.344 89.2235L114.422 89.2851C114.687 89.4868 114.979 89.6481 115.329 89.6325C115.577 89.6205 115.815 89.5572 116.034 89.4425C116.582 89.1533 116.823 88.4447 116.674 87.8679C116.582 87.5051 116.37 87.221 116.092 87.0241L116.196 86.9534C116.417 86.7995 116.618 86.6373 116.776 86.3979L116.811 86.3412H116.797C116.968 86.0468 116.857 85.6463 116.479 85.5231Z" fill="#1E1E1E"/>
<path fill-rule="evenodd" clip-rule="evenodd" d="M70.9067 99.2664C71.4713 100.005 72.4936 100.57 73.6385 100.841C74.7296 101.099 75.9353 101.088 76.9759 100.692L77.0653 100.656C77.8433 100.333 78.5901 99.68 78.8737 98.9989C78.9864 98.7281 79.0246 98.4529 78.9474 98.1961C78.878 97.965 78.7153 97.7524 78.4442 97.5697C78.3591 97.5123 78.245 97.5082 78.1362 97.5273C78.0013 97.5511 77.8683 97.6143 77.7881 97.6996C77.3429 98.1731 76.697 98.6348 75.9325 98.6269C75.3426 98.6209 74.8609 98.3879 74.3938 98.1246L74.0656 97.9366C73.7489 97.7558 73.4277 97.5859 73.0643 97.5084C72.4138 97.3694 71.6248 97.6233 71.144 98.0422C70.9343 98.2248 70.782 98.4396 70.7406 98.6708C70.7059 98.865 70.7547 99.0677 70.9067 99.2664ZM74.2887 86.3518C72.9966 87.1374 71.028 88.9693 72.4179 90.917C74.054 92.6342 76.4096 90.6653 77.5704 89.7748C78.6467 89.0846 79.856 90.8596 78.8574 91.6655C70.4695 97.8776 67.0655 86.5573 73.6352 85.4282C74.3585 85.3037 74.6272 86.1088 74.2887 86.3518ZM88.8648 74.2776L88.4936 74.1757L88.1152 74.0736L87.8592 74.0059C86.1012 73.5456 84.1622 73.1405 82.4189 73.3383C81.7831 73.4105 81.267 73.7684 81.177 74.4347C81.1012 74.9969 81.4645 75.7223 82.0826 75.8222C84.1302 76.1536 86.2263 76.0461 88.2833 76.3877C89.3076 76.5577 90.3241 76.7687 91.3446 76.9589C92.1205 77.1037 92.9223 77.1545 93.7049 77.2716L93.5251 77.2966C93.4621 77.3051 93.4778 77.4111 93.5399 77.4068C93.7979 77.381 94.0562 77.377 94.315 77.3951L94.4259 77.4042C94.5948 77.428 94.6944 77.2264 94.5438 77.124C93.5903 76.4769 92.7811 75.7755 91.7135 75.2985C90.79 74.886 89.8396 74.5459 88.8648 74.2776ZM72.8604 73.2851C71.5087 71.9182 68.6343 72.4435 67.0263 73.0687C66.1085 73.4257 65.2359 73.8771 64.5091 74.5523L64.4382 74.6187L64.3291 74.7237C63.8384 75.2042 63.2913 75.8654 63.3692 76.5581C63.381 76.6637 63.4385 76.7843 63.5577 76.8055C64.2018 76.9197 64.8343 76.5798 65.4291 76.3753L65.8229 76.2401C66.4144 76.0385 67.0097 75.846 67.6195 75.7069C68.3778 75.5344 69.1513 75.4346 69.9298 75.4445C70.7167 75.4548 71.5619 75.6769 72.3115 75.3644C73.1475 75.0161 73.5809 74.0138 72.8604 73.2851ZM86.214 84.3087C86.5589 84.661 87.0143 84.8598 87.5973 84.7416C88.0528 84.6492 88.9201 84.1911 89.6129 83.4855C90.0869 83.0028 90.4832 82.3996 90.5909 81.7009C90.6159 81.5386 90.702 81.4346 90.8151 81.3691C90.9043 81.3173 91.022 81.2913 91.1502 81.3043C91.2591 81.3153 91.3746 81.3548 91.464 81.407C91.6339 81.5065 91.7033 81.6477 91.7175 81.7531C91.8538 82.7704 91.4609 83.7797 90.8486 84.6308C90.0223 85.7794 88.8088 86.621 88.0955 86.818C86.8749 87.1554 85.5888 86.8868 84.6405 86.037C83.8822 85.3576 83.4936 84.4723 83.133 83.562L83.0634 83.3856C82.9823 83.179 82.9018 82.974 82.8165 82.7711C82.6456 82.3646 82.7003 82.0132 82.8661 81.7394C83.0497 81.436 83.3886 81.2224 83.7658 81.1568C84.1146 81.0962 84.4877 81.1625 84.7823 81.3756C85.0312 81.5556 85.2319 81.8408 85.3032 82.2625C85.4191 82.9482 85.6881 83.735 86.1624 84.2542L86.214 84.3087ZM65.2844 80.3397C65.5688 80.1915 65.7913 80.1468 66.1068 80.2414C66.2812 80.2938 66.4536 80.3942 66.5886 80.5293C66.7224 80.6631 66.819 80.8295 66.8565 81.0142C66.9488 81.4698 67.198 81.8964 67.5532 82.1744C67.8567 82.4121 68.2399 82.5381 68.6649 82.467C69.1235 82.3904 69.5605 82.0962 69.8614 81.7493C69.9452 81.6526 70.014 81.5449 70.0804 81.4359L70.1201 81.3705C70.2684 81.1256 70.4125 80.898 70.617 80.7182C70.6945 80.6497 70.8113 80.6023 70.9245 80.6023C70.9704 80.6023 71.0171 80.6098 71.0616 80.6237C71.518 81.082 71.6058 81.4297 71.5911 81.7745C71.5757 82.1361 71.4331 82.5022 71.2028 82.8439C70.6626 83.6452 69.6368 84.3022 68.9446 84.451C67.9966 84.6548 67.0552 84.4102 66.3004 83.8806C65.5237 83.3356 64.9482 82.4895 64.7688 81.536C64.7256 81.3063 64.744 81.0584 64.8314 80.8435C64.9168 80.6335 65.0657 80.4536 65.2844 80.3397Z" fill="#1E1E1E"/>
<path fill-rule="evenodd" clip-rule="evenodd" d="M70.6648 105.511C72.2583 104.091 74.0444 101.237 76.3335 103.495C76.8997 104.134 77.1289 105.565 77.9947 105.845C79.1445 106.218 80.284 105.001 80.6758 104.067C82.279 98.8746 75.6517 97.4504 71.8762 98.2892C70.0317 99.0469 68.6732 102.097 68.5911 103.689C68.538 104.758 69.4432 106.331 70.6648 105.511ZM58.6434 97.5083C58.659 97.4393 58.6807 97.377 58.7069 97.3203C59.4116 97.0538 59.9692 97.3256 60.3138 97.8333C60.3025 97.9594 60.2649 98.0873 60.2411 98.2124C60.507 98.7728 60.7469 99.4661 61.1072 99.9503C61.1784 99.9558 61.2521 99.9482 61.323 99.9277C67.2966 100.552 64.3802 94.2996 70.439 92.7467C75.1225 91.9738 83.5874 92.8592 85.7968 97.7356C87.5393 105.524 96.3993 100.097 99.3083 96.0464C102.412 92.3599 104.419 87.8551 106.354 83.4838C106.763 82.5587 108.04 83.2202 107.901 84.1079C109.689 87.6971 109.63 92.0085 110.073 95.9407C110.826 103.786 111.561 114.787 104.274 119.577C94.7802 130.311 71.0731 134.099 60.1231 124.236C56.3325 116.084 56.7998 106.139 58.6434 97.5083Z" fill="#1E1E1E"/>
<path fill-rule="evenodd" clip-rule="evenodd" d="M56.105 81.8873C57.7362 92.9249 69.1236 94.1456 71.1468 83.1879C70.8221 83.0457 70.5885 82.7657 70.6373 82.2221C70.6487 79.8341 69.9077 77.3103 67.7542 75.9823C65.5289 74.612 62.9246 74.4761 60.3494 74.5107C55.4351 74.3936 55.5385 78.5025 56.105 81.8873ZM72.9295 77.0869C74.4718 77.0219 76.423 77.0763 77.8046 78.0163C78.1844 76.9931 79.1713 75.9007 80.1685 75.3165C76.4622 75.425 72.647 75.0601 68.9129 74.7768C69.8068 75.3863 70.6383 76.302 71.1788 77.3606C71.6803 77.0931 72.3986 77.1181 72.9295 77.0869ZM79.7276 83.0575C84.0042 97.783 94.6792 91.3647 95.8431 89.4775C97.9423 86.3546 98.3372 78.7632 96.5086 76.7335C93.8912 74.898 90.1857 75.3704 87.0936 75.3254C81.4129 75.4021 77.3784 77.102 79.7276 83.0575ZM51.0553 76.2847C52.2173 76.1327 53.4589 76.1021 54.5393 76.6138C54.8719 75.1996 55.9161 74.0173 57.0951 73.4969C57.2378 73.3179 57.2164 73.2217 57.7039 73.2486C60.6973 72.3487 64.0469 72.8248 66.9234 73.7477C71.4664 74.1304 76.2327 74.4321 80.8139 74.9595C85.1054 73.0316 98.0564 72.749 98.8612 77.5008C99.8736 77.3493 101.598 76.5522 102.449 77.6334C108.689 76.5752 115.137 78.0459 121.404 78.7009C122.981 78.9915 123.794 82.1233 122.003 82.0805C120.996 81.8072 122.034 80.1304 120.678 80.0043C114.632 79.3436 108.717 78.4064 102.608 78.2966C102.821 79.3518 98.568 79.4204 98.5052 78.8043C98.4961 78.8089 98.4865 78.812 98.4773 78.8161C99.5282 82.7338 98.5796 88.372 96.6804 90.8014C94.0195 93.9825 87.3389 94.8951 84.3767 92.8484C80.5555 90.9594 76.5804 81.477 77.697 78.3268C75.6705 77.6843 73.6671 77.8771 71.5639 78.2044C72.0454 79.5649 72.8766 82.9141 71.6808 83.2045C71.9003 89.8539 65.8508 94.0028 60.274 91.2751C55.4471 89.0085 53.759 81.8341 54.3497 77.4794C53.7488 78.6408 48.7034 77.3763 51.0553 76.2847Z" fill="#1E1E1E"/>
</svg>
